<svg id="Capa_1" data-name="Capa 1" xmlns="http://www.w3.org/2000/svg" viewBox="0 0 50.34 50"><defs><style>.cls-1,.cls-3{fill:none;stroke:#fff;stroke-miterlimit:10;}.cls-1{stroke-width:1.39px;}.cls-1,.cls-2{opacity:0.8;}.cls-3{stroke-width:0.85px;}</style></defs><circle class="cls-1" cx="25.17" cy="25" r="23.5"/><g id="CTj51Y" class="cls-2"><path class="cls-3" d="M27.13,23.87l7-12.26h-.6c-2.34,0-4.68,0-7,0a.79.79,0,0,0-.8.46q-4.62,8.13-9.26,16.24c-.07.12-.12.24-.22.44h8.13l-4,12,.08.05c4.52-5.6,9.05-11.19,13.65-16.87Z"/><path class="cls-3" d="M27.13,23.87h7C29.52,29.55,25,35.14,20.47,40.74l-.08-.05,4-11.95H16.22c.1-.2.15-.32.22-.44q4.64-8.11,9.26-16.24a.79.79,0,0,1,.8-.46c2.34,0,4.68,0,7,0h.6Z"/></g></svg>