<svg id="Capa_1" data-name="Capa 1" xmlns="http://www.w3.org/2000/svg" viewBox="0 0 50.34 50"><defs><style>.cls-1,.cls-4{opacity:0.8;}.cls-2,.cls-3,.cls-4{fill:none;stroke:#fff;stroke-miterlimit:10;}.cls-2{stroke-width:0.8px;}.cls-3{stroke-width:0.6px;}.cls-4{stroke-width:1.39px;}</style></defs><g class="cls-1"><path class="cls-2" d="M18.06,35.76A1.07,1.07,0,1,1,17,34.69a1.06,1.06,0,0,1,1.06,1.07"/><path class="cls-2" d="M34.15,35.76a1.07,1.07,0,1,1-1.07-1.07,1.07,1.07,0,0,1,1.07,1.07"/><path class="cls-2" d="M10.88,23.23c-.06.38-.09,2.85-.09,3.25A8.24,8.24,0,0,0,19,34.72h12a8.23,8.23,0,0,0,8.23-8.24c0-.4,0-2.87-.07-3.25Z"/><path class="cls-2" d="M40.47,22a1.26,1.26,0,0,1-1.26,1.27H11.13A1.26,1.26,0,0,1,9.87,22h0a1.26,1.26,0,0,1,1.26-1.27H39.21A1.26,1.26,0,0,1,40.47,22Z"/><path class="cls-3" d="M14.85,16.87a1,1,0,1,1-1-1A1,1,0,0,1,14.85,16.87Z"/><path class="cls-3" d="M18.11,14.16a1,1,0,1,1-1-1A1,1,0,0,1,18.11,14.16Z"/><path class="cls-3" d="M21.06,17.85a1,1,0,1,1-1-1A1,1,0,0,1,21.06,17.85Z"/></g><circle class="cls-4" cx="25.17" cy="25" r="23.5"/></svg>