<svg id="Capa_1" data-name="Capa 1" xmlns="http://www.w3.org/2000/svg" viewBox="0 0 50 50"><defs><style>.cls-1,.cls-3{opacity:0.8;}.cls-2,.cls-3{fill:none;stroke:#fff;stroke-miterlimit:10;}.cls-2{stroke-width:0.8px;}.cls-3{stroke-width:1.39px;}</style></defs><g class="cls-1"><path class="cls-2" d="M36.64,25.39h-25a.65.65,0,0,0-.66.66v6.29a.66.66,0,0,0,.66.66h1.73a.67.67,0,0,0,.66-.66V30.46a.67.67,0,0,1,.66-.66H35.32a.67.67,0,0,1,.66.66v1.88a.67.67,0,0,0,.66.66h1.73a.66.66,0,0,0,.66-.66V26.05a.65.65,0,0,0-.66-.66Z"/><path class="cls-2" d="M38.68,25.38V17.69A.68.68,0,0,0,38,17H12a.68.68,0,0,0-.68.69v7.69"/><rect class="cls-2" x="26.05" y="19.34" width="10.12" height="3.46" rx="0.56"/><rect class="cls-2" x="13.54" y="19.34" width="10.12" height="3.46" rx="0.56"/></g><circle class="cls-3" cx="25" cy="25" r="23.5"/></svg>