<svg id="Capa_1" data-name="Capa 1" xmlns="http://www.w3.org/2000/svg" viewBox="0 0 50.34 50"><defs><style>.cls-1{fill:none;stroke:#fff;stroke-miterlimit:10;stroke-width:1.39px;}.cls-1,.cls-2{opacity:0.8;}.cls-3{fill:#fff;}</style></defs><circle class="cls-1" cx="25.17" cy="25" r="23.5"/><g id="DDwWuY" class="cls-2"><path class="cls-3" d="M14.1,29.54a9.91,9.91,0,0,1,1.05-4.33c.94-2,1.93-3.93,3-5.82A89.22,89.22,0,0,1,24.69,10c.39-.52.58-.52,1,0A88.73,88.73,0,0,1,34,22.62,18.6,18.6,0,0,1,36.09,28a9.81,9.81,0,0,1-1.47,7.08,10.72,10.72,0,0,1-10.35,5.3,11,11,0,0,1-10-9.45C14.18,30.46,14.15,30,14.1,29.54Zm11-18.92c-1.25,1.73-2.47,3.37-3.62,5.05A56,56,0,0,0,16,25.08,10.61,10.61,0,0,0,15,30.5a10.32,10.32,0,0,0,10.4,9.13,10,10,0,0,0,8.77-5.24,9.05,9.05,0,0,0,1.24-6,15.61,15.61,0,0,0-1.7-4.72,81.56,81.56,0,0,0-7.75-12.05C25.69,11.31,25.45,11,25.15,10.62Z"/><path class="cls-3" d="M18.12,28.19a8.27,8.27,0,0,1,4.77-7.45.85.85,0,0,1,.51-.11c.1,0,.26.26.24.34a.75.75,0,0,1-.36.42,7.53,7.53,0,0,0-2.61,2A7.44,7.44,0,0,0,19.45,31a1.89,1.89,0,0,0,.09.21c.12.27,0,.5-.22.55a.57.57,0,0,1-.49-.27,19.72,19.72,0,0,1-.59-2A9.51,9.51,0,0,1,18.12,28.19Z"/></g></svg>