<?xml version="1.0" encoding="utf-8"?>
<!-- Generator: Adobe Illustrator 26.2.1, SVG Export Plug-In . SVG Version: 6.00 Build 0)  -->
<svg version="1.1" id="Capa_1" xmlns="http://www.w3.org/2000/svg" xmlns:xlink="http://www.w3.org/1999/xlink" x="0px" y="0px"
	 viewBox="0 0 98.8 89.8" style="enable-background:new 0 0 98.8 89.8;" xml:space="preserve">
<style type="text/css">
	.st0{fill:#FFFFFF;}
</style>
<g>
	<polygon class="st0" points="32.8,28.1 21.6,28.1 21.1,30.5 25.2,30.5 23.1,40.9 26.1,40.9 28.2,30.5 32.3,30.5 	"/>
	<path class="st0" d="M30.8,36.6c0,0.9,0.2,1.7,0.6,2.3c0.4,0.7,1,1.2,1.7,1.5c0.7,0.4,1.6,0.6,2.6,0.6c1.2,0,2.2-0.3,3.1-0.8
		c0.9-0.5,1.6-1.2,2.1-2.1c0.5-0.9,0.8-1.9,0.8-2.9c0-0.9-0.2-1.7-0.6-2.3c-0.4-0.7-1-1.2-1.7-1.5c-0.7-0.4-1.6-0.6-2.6-0.6
		c-1.2,0-2.2,0.3-3.1,0.8c-0.9,0.5-1.6,1.2-2.1,2.1C31.1,34.6,30.8,35.5,30.8,36.6z M34.1,34.8c0.3-0.5,0.6-0.9,1-1.2
		c0.4-0.3,0.9-0.4,1.5-0.4c0.7,0,1.3,0.2,1.7,0.6c0.4,0.4,0.6,0.9,0.6,1.6c0,0.6-0.1,1.2-0.4,1.7c-0.2,0.5-0.6,0.9-1,1.1
		c-0.4,0.3-0.9,0.4-1.5,0.4c-0.7,0-1.3-0.2-1.7-0.6c-0.4-0.4-0.6-0.9-0.6-1.6C33.7,35.9,33.8,35.3,34.1,34.8z"/>
	<path class="st0" d="M45.4,28.8l-0.5,2.4h-1.5L43,33.5h1.5l-0.8,4c-0.1,0.7-0.1,1.4,0.1,1.9c0.2,0.5,0.6,1,1.1,1.3
		c0.5,0.3,1.1,0.4,1.8,0.4c0.4,0,0.9,0,1.3-0.1c0.4-0.1,0.8-0.2,1.2-0.5l-0.4-2c-0.2,0.1-0.4,0.2-0.6,0.3c-0.2,0.1-0.4,0.1-0.6,0.1
		c-0.4,0-0.7-0.1-0.9-0.4c-0.2-0.2-0.2-0.6-0.1-1l0.8-4h2.5l0.4-2.2h-2.5l0.5-2.4H45.4z"/>
	<path class="st0" d="M60.4,40.9l2-9.9h-2.9l-0.3,1.3c-0.3-0.4-0.6-0.8-1.1-1c-0.6-0.3-1.3-0.5-2.1-0.5c-0.8,0-1.5,0.1-2.1,0.4
		c-0.7,0.3-1.2,0.7-1.7,1.2c-0.5,0.5-0.9,1.1-1.2,1.8c-0.3,0.7-0.4,1.5-0.4,2.3c0,0.9,0.2,1.7,0.6,2.4c0.4,0.7,0.9,1.2,1.6,1.5
		c0.7,0.3,1.4,0.5,2.1,0.5c1,0,1.8-0.2,2.5-0.7c0.2-0.1,0.4-0.3,0.5-0.4l-0.2,1H60.4z M57.2,38.3c-0.4,0.3-0.9,0.4-1.5,0.4
		c-0.7,0-1.3-0.2-1.7-0.6c-0.4-0.4-0.6-0.9-0.6-1.6c0-0.7,0.1-1.2,0.4-1.7s0.6-0.9,1-1.1c0.4-0.3,0.9-0.4,1.5-0.4
		c0.7,0,1.3,0.2,1.7,0.6c0.4,0.4,0.6,0.9,0.6,1.6c0,0.6-0.1,1.2-0.4,1.7S57.6,38,57.2,38.3z"/>
	<polygon class="st0" points="68.6,27.3 65.8,27.3 63,40.9 65.9,40.9 	"/>
	<path class="st0" d="M24.5,58.2c-0.3-0.1-0.6-0.2-1-0.2h-1.7v4.3h0.6v-1.3h1.1c0.4,0,0.7-0.1,1-0.2c0.3-0.1,0.5-0.3,0.6-0.5
		c0.1-0.2,0.2-0.5,0.2-0.8c0-0.3-0.1-0.6-0.2-0.8C24.9,58.5,24.7,58.4,24.5,58.2z M24.4,60.3c-0.2,0.2-0.5,0.3-0.9,0.3h-1v-1.9h1
		c0.4,0,0.7,0.1,0.9,0.3s0.3,0.4,0.3,0.7C24.7,59.9,24.6,60.1,24.4,60.3z"/>
	<path class="st0" d="M26.5,59.1v3.3h0.6v-1.6c0-0.4,0.1-0.6,0.3-0.8c0.2-0.2,0.4-0.3,0.8-0.3c0,0,0,0,0.1,0c0,0,0,0,0.1,0v-0.6
		c-0.3,0-0.6,0.1-0.8,0.2c-0.2,0.1-0.3,0.2-0.4,0.4v-0.5H26.5z"/>
	<path class="st0" d="M30,62.2c0.3,0.1,0.5,0.2,0.9,0.2c0.3,0,0.6-0.1,0.9-0.2c0.3-0.1,0.5-0.3,0.6-0.6c0.1-0.3,0.2-0.5,0.2-0.9
		c0-0.3-0.1-0.6-0.2-0.9c-0.1-0.2-0.3-0.4-0.6-0.6c-0.3-0.1-0.5-0.2-0.9-0.2c-0.3,0-0.6,0.1-0.9,0.2c-0.3,0.1-0.5,0.3-0.6,0.6
		c-0.1,0.3-0.2,0.5-0.2,0.9c0,0.3,0.1,0.6,0.2,0.9C29.5,61.9,29.7,62.1,30,62.2z M29.9,60.1c0.1-0.2,0.2-0.3,0.4-0.4
		c0.2-0.1,0.4-0.1,0.6-0.1c0.2,0,0.4,0,0.6,0.1c0.2,0.1,0.3,0.2,0.4,0.4c0.1,0.2,0.1,0.4,0.1,0.6c0,0.2,0,0.4-0.1,0.6
		c-0.1,0.2-0.2,0.3-0.4,0.4c-0.2,0.1-0.4,0.1-0.6,0.1c-0.2,0-0.4,0-0.6-0.1c-0.2-0.1-0.3-0.2-0.4-0.4c-0.1-0.2-0.1-0.4-0.1-0.6
		C29.7,60.5,29.8,60.3,29.9,60.1z"/>
	<path class="st0" d="M33.8,59.1v4.5h0.6v-1.7c0.1,0.1,0.2,0.3,0.4,0.3c0.2,0.1,0.5,0.2,0.7,0.2c0.3,0,0.6-0.1,0.9-0.2
		c0.2-0.1,0.4-0.3,0.6-0.6c0.1-0.3,0.2-0.5,0.2-0.9c0-0.3-0.1-0.6-0.2-0.9c-0.1-0.2-0.3-0.4-0.6-0.6c-0.2-0.1-0.5-0.2-0.9-0.2
		c-0.3,0-0.5,0.1-0.8,0.2c-0.2,0.1-0.3,0.2-0.4,0.4v-0.5H33.8z M34.5,60.1c0.1-0.2,0.2-0.3,0.4-0.4c0.2-0.1,0.4-0.1,0.6-0.1
		c0.2,0,0.4,0,0.6,0.1c0.2,0.1,0.3,0.2,0.4,0.4c0.1,0.2,0.1,0.4,0.1,0.6c0,0.2,0,0.4-0.1,0.6c-0.1,0.2-0.2,0.3-0.4,0.4
		c-0.2,0.1-0.4,0.1-0.6,0.1c-0.2,0-0.4,0-0.6-0.1c-0.2-0.1-0.3-0.2-0.4-0.4c-0.1-0.2-0.1-0.4-0.1-0.6C34.4,60.5,34.4,60.3,34.5,60.1
		z"/>
	<rect x="38.5" y="59.1" class="st0" width="0.6" height="3.3"/>
	<path class="st0" d="M39,57.8c-0.1-0.1-0.2-0.1-0.3-0.1c-0.1,0-0.2,0-0.3,0.1s-0.1,0.2-0.1,0.3c0,0.1,0,0.2,0.1,0.3
		c0.1,0.1,0.2,0.1,0.3,0.1c0.1,0,0.2,0,0.3-0.1c0.1-0.1,0.1-0.2,0.1-0.3C39.1,58,39.1,57.9,39,57.8z"/>
	<path class="st0" d="M43.6,60.9C43.6,60.8,43.6,60.8,43.6,60.9c0-0.4-0.1-0.7-0.2-1c-0.1-0.3-0.3-0.4-0.6-0.6
		c-0.2-0.1-0.5-0.2-0.8-0.2c-0.3,0-0.6,0.1-0.8,0.2c-0.2,0.1-0.4,0.3-0.6,0.6c-0.1,0.3-0.2,0.5-0.2,0.9c0,0.3,0.1,0.6,0.2,0.9
		c0.1,0.3,0.4,0.4,0.6,0.6c0.3,0.1,0.6,0.2,0.9,0.2c0.3,0,0.5,0,0.7-0.1c0.2-0.1,0.4-0.2,0.6-0.4L43,61.5c-0.1,0.1-0.3,0.2-0.4,0.3
		c-0.2,0.1-0.3,0.1-0.5,0.1c-0.2,0-0.4,0-0.6-0.1c-0.2-0.1-0.3-0.2-0.4-0.4c-0.1-0.1-0.1-0.3-0.1-0.4L43.6,60.9
		C43.6,60.9,43.6,60.9,43.6,60.9z M41.4,59.7c0.2-0.1,0.3-0.1,0.5-0.1c0.2,0,0.4,0,0.6,0.1c0.2,0.1,0.3,0.2,0.4,0.4
		c0.1,0.1,0.1,0.3,0.1,0.4h-2.1c0-0.1,0.1-0.3,0.1-0.4C41.1,59.9,41.3,59.8,41.4,59.7z"/>
	<path class="st0" d="M47.9,62.4v-4.6h-0.6v1.8c-0.1-0.1-0.2-0.3-0.4-0.3c-0.2-0.1-0.5-0.2-0.7-0.2c-0.3,0-0.6,0.1-0.8,0.2
		c-0.2,0.1-0.4,0.3-0.6,0.6c-0.1,0.2-0.2,0.5-0.2,0.9c0,0.3,0.1,0.6,0.2,0.9c0.1,0.3,0.3,0.4,0.6,0.6c0.2,0.1,0.5,0.2,0.8,0.2
		c0.3,0,0.5-0.1,0.8-0.2c0.2-0.1,0.3-0.2,0.4-0.4v0.5H47.9z M47.2,61.4c-0.1,0.2-0.2,0.3-0.4,0.4c-0.2,0.1-0.4,0.1-0.6,0.1
		c-0.2,0-0.4,0-0.6-0.1c-0.2-0.1-0.3-0.2-0.4-0.4c-0.1-0.2-0.1-0.4-0.1-0.6c0-0.2,0-0.4,0.1-0.6c0.1-0.2,0.2-0.3,0.4-0.4
		c0.2-0.1,0.4-0.1,0.6-0.1c0.2,0,0.4,0,0.6,0.1c0.2,0.1,0.3,0.2,0.4,0.4c0.1,0.2,0.1,0.4,0.1,0.6C47.3,61,47.3,61.2,47.2,61.4z"/>
	<path class="st0" d="M52.1,62.4v-2c0-0.4-0.1-0.8-0.4-1c-0.2-0.2-0.6-0.3-1-0.3c-0.3,0-0.5,0-0.7,0.1c-0.2,0.1-0.4,0.2-0.6,0.3
		l0.2,0.4c0.1-0.1,0.3-0.2,0.5-0.3s0.4-0.1,0.6-0.1c0.3,0,0.5,0.1,0.7,0.2c0.1,0.1,0.2,0.3,0.2,0.6v0.1h-0.9c-0.3,0-0.6,0-0.8,0.1
		c-0.2,0.1-0.3,0.2-0.4,0.3c-0.1,0.1-0.1,0.3-0.1,0.5c0,0.2,0,0.4,0.1,0.5c0.1,0.1,0.2,0.3,0.4,0.3c0.2,0.1,0.4,0.1,0.6,0.1
		c0.3,0,0.5-0.1,0.7-0.2c0.1-0.1,0.2-0.2,0.3-0.3v0.4H52.1z M51.1,61.8C51,61.9,50.8,62,50.6,62c-0.2,0-0.4,0-0.5-0.1
		c-0.1-0.1-0.2-0.2-0.2-0.4c0-0.1,0.1-0.3,0.2-0.4c0.1-0.1,0.3-0.1,0.6-0.1h0.9v0.5C51.4,61.6,51.3,61.7,51.1,61.8z"/>
	<path class="st0" d="M56.7,62.4v-4.6h-0.6v1.8c-0.1-0.1-0.2-0.3-0.4-0.3c-0.2-0.1-0.5-0.2-0.7-0.2c-0.3,0-0.6,0.1-0.8,0.2
		c-0.2,0.1-0.4,0.3-0.6,0.6c-0.1,0.2-0.2,0.5-0.2,0.9c0,0.3,0.1,0.6,0.2,0.9c0.1,0.3,0.3,0.4,0.6,0.6c0.2,0.1,0.5,0.2,0.8,0.2
		c0.3,0,0.5-0.1,0.8-0.2c0.2-0.1,0.3-0.2,0.4-0.4v0.5H56.7z M56,61.4c-0.1,0.2-0.2,0.3-0.4,0.4c-0.2,0.1-0.4,0.1-0.6,0.1
		c-0.2,0-0.4,0-0.6-0.1c-0.2-0.1-0.3-0.2-0.4-0.4c-0.1-0.2-0.1-0.4-0.1-0.6c0-0.2,0-0.4,0.1-0.6c0.1-0.2,0.2-0.3,0.4-0.4
		c0.2-0.1,0.4-0.1,0.6-0.1c0.2,0,0.4,0,0.6,0.1c0.2,0.1,0.3,0.2,0.4,0.4c0.1,0.2,0.1,0.4,0.1,0.6C56.1,61,56.1,61.2,56,61.4z"/>
	<path class="st0" d="M61.3,60.9C61.3,60.8,61.3,60.8,61.3,60.9c0-0.4-0.1-0.7-0.2-1c-0.1-0.3-0.3-0.4-0.6-0.6
		c-0.2-0.1-0.5-0.2-0.8-0.2c-0.3,0-0.6,0.1-0.8,0.2c-0.2,0.1-0.4,0.3-0.6,0.6c-0.1,0.3-0.2,0.5-0.2,0.9c0,0.3,0.1,0.6,0.2,0.9
		c0.1,0.3,0.4,0.4,0.6,0.6c0.3,0.1,0.6,0.2,0.9,0.2c0.3,0,0.5,0,0.7-0.1c0.2-0.1,0.4-0.2,0.6-0.4l-0.3-0.4c-0.1,0.1-0.3,0.2-0.4,0.3
		c-0.2,0.1-0.3,0.1-0.5,0.1c-0.2,0-0.4,0-0.6-0.1c-0.2-0.1-0.3-0.2-0.4-0.4c-0.1-0.1-0.1-0.3-0.1-0.4L61.3,60.9
		C61.2,60.9,61.2,60.9,61.3,60.9z M59.1,59.7c0.2-0.1,0.3-0.1,0.5-0.1c0.2,0,0.4,0,0.6,0.1c0.2,0.1,0.3,0.2,0.4,0.4
		c0.1,0.1,0.1,0.3,0.1,0.4h-2.1c0-0.1,0.1-0.3,0.1-0.4C58.8,59.9,58.9,59.8,59.1,59.7z"/>
	<path class="st0" d="M64.1,61.8c-0.1,0.1-0.3,0.1-0.6,0.1c-0.2,0-0.4,0-0.6-0.1c-0.2-0.1-0.4-0.1-0.5-0.2L62.1,62
		c0.1,0.1,0.3,0.2,0.6,0.3c0.2,0.1,0.5,0.1,0.8,0.1c0.3,0,0.5,0,0.8-0.1c0.2-0.1,0.4-0.2,0.5-0.3c0.1-0.1,0.2-0.3,0.2-0.5
		c0-0.2,0-0.3-0.1-0.4c-0.1-0.1-0.2-0.2-0.3-0.3c-0.1-0.1-0.3-0.1-0.4-0.1c-0.1,0-0.3-0.1-0.4-0.1c-0.1,0-0.3-0.1-0.4-0.1
		c-0.1,0-0.2-0.1-0.3-0.1c-0.1-0.1-0.1-0.1-0.1-0.3c0-0.1,0.1-0.2,0.2-0.3c0.1-0.1,0.3-0.1,0.6-0.1c0.2,0,0.3,0,0.5,0.1
		c0.2,0,0.3,0.1,0.5,0.2l0.3-0.5c-0.1-0.1-0.3-0.2-0.5-0.2c-0.2-0.1-0.4-0.1-0.7-0.1c-0.3,0-0.5,0-0.7,0.1c-0.2,0.1-0.4,0.2-0.5,0.3
		c-0.1,0.1-0.2,0.3-0.2,0.5c0,0.2,0,0.3,0.1,0.5c0.1,0.1,0.2,0.2,0.3,0.3c0.1,0.1,0.3,0.1,0.4,0.1c0.1,0,0.3,0.1,0.4,0.1
		c0.1,0,0.3,0,0.4,0.1c0.1,0,0.2,0.1,0.3,0.1c0.1,0.1,0.1,0.1,0.1,0.2C64.3,61.6,64.2,61.7,64.1,61.8z"/>
	<polygon class="st0" points="26,42 25,47.1 19.2,47.1 20.2,42 17.2,42 14.6,54.9 17.6,54.9 18.7,49.6 24.5,49.6 23.4,54.9 
		26.4,54.9 29,42 	"/>
	<path class="st0" d="M40.4,49.3c0-0.9-0.2-1.7-0.6-2.3c-0.4-0.7-1-1.2-1.7-1.5c-0.7-0.4-1.6-0.6-2.6-0.6c-1.2,0-2.2,0.3-3.1,0.8
		c-0.9,0.5-1.6,1.2-2.1,2.1c-0.5,0.9-0.8,1.8-0.8,3c0,0.9,0.2,1.7,0.6,2.3c0.4,0.7,1,1.2,1.7,1.5c0.7,0.4,1.6,0.6,2.6,0.6
		c1.2,0,2.2-0.3,3.1-0.8c0.9-0.5,1.6-1.2,2.1-2.1C40.2,51.4,40.4,50.4,40.4,49.3z M37.2,51.2c-0.2,0.5-0.6,0.9-1,1.1
		c-0.4,0.3-0.9,0.4-1.5,0.4c-0.7,0-1.3-0.2-1.7-0.6c-0.4-0.4-0.6-0.9-0.6-1.6c0-0.7,0.1-1.2,0.4-1.7c0.3-0.5,0.6-0.9,1-1.2
		c0.4-0.3,0.9-0.4,1.5-0.4c0.7,0,1.3,0.2,1.7,0.6c0.4,0.4,0.6,0.9,0.6,1.6C37.5,50.1,37.4,50.7,37.2,51.2z"/>
	<path class="st0" d="M59.1,49.4c0.2-1,0.2-1.8-0.1-2.5c-0.2-0.7-0.7-1.2-1.2-1.5c-0.6-0.3-1.3-0.5-2.1-0.5c-1,0-1.9,0.2-2.6,0.7
		c-0.4,0.2-0.8,0.6-1.1,0.9c-0.1-0.1-0.1-0.2-0.2-0.3c-0.3-0.4-0.7-0.8-1.2-1c-0.5-0.2-1-0.3-1.7-0.3c-0.8,0-1.5,0.2-2.2,0.5
		c-0.3,0.2-0.7,0.4-0.9,0.7l0.2-1h-2.7l-2,9.9h2.9l1-5c0.2-0.9,0.5-1.5,0.9-1.9c0.4-0.4,1-0.6,1.7-0.6c0.6,0,1.1,0.2,1.3,0.6
		c0.3,0.4,0.3,1,0.2,1.7l-1,5.3h2.9l1-5.1c0.2-0.9,0.5-1.5,0.9-1.9c0.4-0.4,1-0.6,1.7-0.6c0.6,0,1.1,0.2,1.3,0.6
		c0.3,0.4,0.3,1,0.1,1.7l-1,5.3H58L59.1,49.4z"/>
	<path class="st0" d="M71.4,50c0-0.3,0-0.5,0-0.8c0-0.9-0.2-1.7-0.6-2.3c-0.4-0.6-0.9-1.1-1.6-1.5c-0.7-0.4-1.5-0.5-2.5-0.5
		c-1.1,0-2.2,0.3-3,0.8c-0.9,0.5-1.6,1.2-2.1,2.1c-0.5,0.9-0.7,1.8-0.7,3c0,0.9,0.2,1.7,0.6,2.3c0.4,0.7,1,1.2,1.8,1.5
		c0.8,0.4,1.6,0.6,2.7,0.6c0.7,0,1.5-0.1,2.2-0.3c0.7-0.2,1.4-0.5,1.9-1l-1.2-1.9c-0.3,0.3-0.7,0.5-1.2,0.7c-0.5,0.2-1,0.2-1.5,0.2
		c-0.9,0-1.5-0.2-1.9-0.6c-0.4-0.3-0.6-0.8-0.6-1.5h7.6C71.3,50.5,71.3,50.3,71.4,50z M65,47.5c0.4-0.3,1-0.5,1.6-0.5
		c0.5,0,0.9,0.1,1.3,0.3c0.4,0.2,0.6,0.5,0.8,0.9c0.1,0.3,0.2,0.5,0.1,0.9h-4.9c0-0.1,0.1-0.2,0.1-0.3C64.2,48.2,64.6,47.8,65,47.5z
		"/>
	<polygon class="st0" points="95,45 95,41.4 93,41.4 93,43.4 87.5,39 76.2,48 76.2,51.8 87.5,42.8 98.8,51.8 98.8,48 	"/>
	<path class="st0" d="M44.9,85.8C22.3,85.8,4,67.5,4,44.9C4,22.3,22.3,4,44.9,4c20.2,0,37,14.6,40.3,33.9l1.9-1.6l2.1,1.2
		C85.6,16.2,67.1,0,44.9,0C20.1,0,0,20.1,0,44.9s20.1,44.9,44.9,44.9c21.4,0,39.4-15,43.8-35.1h-4.1C80.3,72.5,64.1,85.8,44.9,85.8z
		"/>
</g>
</svg>
