<?xml version="1.0" encoding="utf-8"?>
<!-- Generator: Adobe Illustrator 26.2.1, SVG Export Plug-In . SVG Version: 6.00 Build 0)  -->
<svg version="1.1" id="Capa_1" xmlns="http://www.w3.org/2000/svg" xmlns:xlink="http://www.w3.org/1999/xlink" x="0px" y="0px"
	 viewBox="0 0 47.3 34.9" style="enable-background:new 0 0 47.3 34.9;" xml:space="preserve">
<style type="text/css">
	.st0{fill:#CCCCCC;}
</style>
<path class="st0" d="M44.1,0H3.2C1.4,0,0,1.4,0,3.2v28.5c0,1.8,1.4,3.2,3.2,3.2h40.9c1.8,0,3.2-1.4,3.2-3.2V3.2
	C47.3,1.4,45.8,0,44.1,0z M44.6,30c0.5,0.4,0.5,1.2,0.1,1.7c-0.2,0.3-0.6,0.4-0.9,0.4c-0.3,0-0.6-0.1-0.8-0.3L28.8,19.1L24.4,23
	c-0.2,0.2-0.5,0.3-0.8,0.3c-0.3,0-0.6-0.1-0.8-0.3l-4.4-3.9L4.3,31.8c-0.2,0.2-0.5,0.3-0.8,0.3c-0.3,0-0.7-0.1-0.9-0.4
	c-0.4-0.5-0.4-1.3,0.1-1.7l14-12.6L2.7,4.9C2.2,4.5,2.1,3.7,2.6,3.2C3,2.7,3.8,2.7,4.3,3.1l19.4,17.4L43,3.1
	c0.5-0.4,1.2-0.4,1.7,0.1c0.4,0.5,0.4,1.3-0.1,1.7l-14,12.6L44.6,30z"/>
</svg>
