<?xml version="1.0" encoding="utf-8"?>
<!-- Generator: Adobe Illustrator 26.2.1, SVG Export Plug-In . SVG Version: 6.00 Build 0)  -->
<svg version="1.1" id="Capa_1" xmlns="http://www.w3.org/2000/svg" xmlns:xlink="http://www.w3.org/1999/xlink" x="0px" y="0px"
	 viewBox="0 0 47.3 44" style="enable-background:new 0 0 47.3 44;" xml:space="preserve">
<style type="text/css">
	.st0{fill-rule:evenodd;clip-rule:evenodd;fill:#161E24;}
</style>
<path class="st0" d="M47.1,32.5c-0.3-0.4-1.1-0.8-2.2-1.3c-1.2-0.6-6.9-3.4-8-3.7c-1.1-0.4-1.9-0.6-2.7,0.6c-0.8,1.2-3,3.7-3.7,4.5
	c-0.7,0.8-1.3,0.9-2.5,0.3s-4.9-1.8-9.4-5.8c-3.5-3.1-5.8-6.8-6.5-8s-0.1-1.8,0.5-2.4c0.5-0.5,1.2-1.3,1.8-2
	c0.6-0.7,0.8-1.2,1.2-1.9c0.4-0.8,0.2-1.4-0.1-2c-0.3-0.6-2.7-6.3-3.6-8.6S10-0.1,9.3-0.1C8.7,0,7.4,0.2,7.4,0.2S5.1,0.5,4.1,1.7
	S0,5.6,0,11.2s4.2,11.2,4.8,12s8.1,12.8,19.9,17.5c11.9,4.6,11.9,3.1,14,2.9s6.9-2.8,7.9-5.5C47.4,35.3,47.4,33,47.1,32.5L47.1,32.5
	z"/>
</svg>
