<?xml version="1.0" encoding="utf-8"?>
<!-- Generator: Adobe Illustrator 26.2.1, SVG Export Plug-In . SVG Version: 6.00 Build 0)  -->
<svg version="1.1" xmlns="http://www.w3.org/2000/svg" xmlns:xlink="http://www.w3.org/1999/xlink" x="0px" y="0px"
	 viewBox="0 0 491 482" style="enable-background:new 0 0 491 482;" xml:space="preserve">
<style type="text/css">
	.st0{fill:#42EA60;}
</style>
<g id="background">
</g>
<g id="Objects">
	<g>
		<path class="st0" d="M476.1,369.2l-79.8-66c-9.5-7.9-23.5-7.2-32.3,1.5l-25.5,25.5c-5.1,5.1-12.8,6.4-19.3,3.4
			c-17.6-8.3-54.3-28.6-96.2-70.6c-42-42-62.3-78.6-70.6-96.2c-3-6.5-1.7-14.2,3.4-19.3l25.5-25.5c8.8-8.8,9.4-22.8,1.5-32.3
			l-66-79.8c-7.2-8.8-19.6-11.2-29.7-6L44.6,26.2c-8.1,4.3-15,10.5-20,18.1c-42.8,65.9,3.9,197.1,111.9,305.1
			c108,108,239.3,154.7,305.1,111.9c7.7-5,13.9-11.9,18.1-20l22.3-42.5C487.3,388.8,484.9,376.4,476.1,369.2z"/>
	</g>
</g>
</svg>
